<svg id="Слой_1" data-name="Слой 1" xmlns="http://www.w3.org/2000/svg" viewBox="0 0 750 502"><defs><style>.cls-1{fill:#fff;stroke:#201600;stroke-miterlimit:10;}</style></defs><title>1</title><polygon class="cls-1" points="209.67 284.33 263.67 284.33 277.67 283.5 322.67 282 322.67 243.33 211.83 244.83 209.67 284.33"/><polygon class="cls-1" points="182.33 247.5 192 247.5 191.17 263.83 191.17 265.58 190.5 277 190.17 284.33 178 284.33 178 263.83 179.67 254.17 182.33 247.5"/><polygon class="cls-1" points="340.67 243.33 349.33 243.33 355 262.5 355 281.5 340.67 281.5 340.67 243.33"/><polygon class="cls-1" points="155 289.75 172.5 287.5 174 289.75 175.75 329 172.5 330.5 157.5 322.5 155 289.75"/><polygon class="cls-1" points="159.5 338 165.38 340.46 178 345.75 181.5 388.5 170.5 388.5 168 388.5 165.38 385.5 159.5 338"/><polygon class="cls-1" points="186.75 342.25 353 341 355 341 355 376.25 353 379.75 315.75 384.25 282 386.75 244 388.5 214 388.5 189.5 390 186.75 342.25"/><polygon class="cls-1" points="181.5 286.5 189.25 286.5 192 287.5 206.5 287.5 209.67 286.5 270.88 286.5 355 284.33 353.75 332.75 335 334.75 301.5 336.5 259.25 336.5 223 335.25 202 334.5 189.75 333.5 183.75 333.5 181.5 286.5"/><polygon class="cls-1" points="362.75 284.33 382.25 282.75 382.25 317 364.5 329 361.5 327.5 362.75 284.33"/><path class="cls-1" d="M363.25,341,380,332.5l-2.5,36.25-1,3.5-2.75,3a23.32,23.32,0,0,1-3.5,1.25c-1.25.25-7,1.5-7,1.5H361.5Z"/></svg>